<svg width="478" height="51" viewBox="0 0 478 51" fill="none" xmlns="http://www.w3.org/2000/svg">
<path d="M15.68 4.816L7.744 50H0.448L8.384 4.816H15.68ZM43.453 14.16C46.909 14.16 49.6397 15.1413 51.645 17.104C53.6503 19.024 54.653 21.7973 54.653 25.424C54.653 26.704 54.525 28.048 54.269 29.456L50.685 50H43.389L46.845 30.224C47.0157 29.4133 47.101 28.56 47.101 27.664C47.101 25.2747 46.4183 23.4613 45.053 22.224C43.7303 20.944 41.8743 20.304 39.485 20.304C36.5837 20.304 34.109 21.2427 32.061 23.12C30.013 24.9547 28.669 27.664 28.029 31.248V31.056L24.701 50H17.341L23.549 14.736H30.909L29.565 22.544C30.9303 19.856 32.829 17.7867 35.261 16.336C37.7357 14.8853 40.4663 14.16 43.453 14.16ZM75.3455 14.288C79.9108 14.288 83.3882 15.3547 85.7775 17.488C88.2095 19.5787 89.4682 22.3947 89.5535 25.936H82.3215C82.3642 24.016 81.7242 22.48 80.4015 21.328C79.1215 20.1333 77.2228 19.536 74.7055 19.536C72.7855 19.536 71.2495 19.984 70.0975 20.88C68.9455 21.7333 68.3695 22.9067 68.3695 24.4C68.3695 25.3813 68.7108 26.2133 69.3935 26.896C70.0762 27.536 70.9082 28.048 71.8895 28.432C72.9135 28.816 74.3642 29.2853 76.2415 29.84C78.6308 30.48 80.5722 31.1413 82.0655 31.824C83.6015 32.464 84.9028 33.424 85.9695 34.704C87.0362 35.9413 87.5695 37.5627 87.5695 39.568C87.5695 40.3787 87.4842 41.1893 87.3135 42C86.8442 44.5173 85.4575 46.5653 83.1535 48.144C80.8495 49.68 77.7988 50.448 74.0015 50.448C69.4362 50.448 65.8095 49.424 63.1215 47.376C60.4762 45.328 59.1322 42.4693 59.0895 38.8H66.3215C66.1508 40.72 66.7908 42.2773 68.2415 43.472C69.7348 44.6667 71.8682 45.264 74.6415 45.264C76.5615 45.264 78.0335 44.7947 79.0575 43.856C80.1242 42.9173 80.6575 41.7227 80.6575 40.272C80.6575 39.1627 80.2948 38.2667 79.5695 37.584C78.8442 36.8587 77.9482 36.304 76.8815 35.92C75.8575 35.4933 74.4068 35.0027 72.5295 34.448C70.1828 33.7653 68.2842 33.1253 66.8335 32.528C65.4255 31.9307 64.2095 31.0347 63.1855 29.84C62.2042 28.6453 61.7135 27.088 61.7135 25.168C61.7135 24.4853 61.7775 23.7387 61.9055 22.928C62.3748 20.3253 63.7828 18.2347 66.1295 16.656C68.4762 15.0773 71.5482 14.288 75.3455 14.288ZM102.775 38.352C102.647 39.0347 102.583 39.6747 102.583 40.272C102.583 41.5093 102.924 42.384 103.607 42.896C104.289 43.408 105.399 43.664 106.935 43.664H110.519L109.303 50H104.823C101.665 50 99.2545 49.36 97.5905 48.08C95.9692 46.8 95.1585 44.7093 95.1585 41.808C95.1585 40.528 95.2652 39.3333 95.4785 38.224L98.5505 20.944H93.4305L94.5185 14.736H99.6385L101.175 5.968H108.535L106.999 14.736H115.511L114.423 20.944H105.847L102.775 38.352ZM137.193 14.288C140.478 14.288 143.124 15.0773 145.129 16.656C147.177 18.2347 148.436 20.3253 148.905 22.928L150.377 14.736H157.673L151.401 50H144.105L145.577 41.808C144.212 44.4107 142.249 46.5013 139.689 48.08C137.172 49.6587 134.313 50.448 131.113 50.448C127.017 50.448 123.796 49.2107 121.449 46.736C119.102 44.2613 117.929 40.848 117.929 36.496C117.929 34.8747 118.078 33.296 118.377 31.76C119.017 28.176 120.233 25.0827 122.025 22.48C123.86 19.8347 126.078 17.808 128.681 16.4C131.326 14.992 134.164 14.288 137.193 14.288ZM138.601 20.688C135.358 20.688 132.564 21.7333 130.217 23.824C127.913 25.9147 126.441 28.752 125.801 32.336C125.63 33.232 125.545 34.192 125.545 35.216C125.545 37.9893 126.334 40.144 127.913 41.68C129.492 43.216 131.668 43.984 134.441 43.984C137.556 43.984 140.308 42.9387 142.697 40.848C145.086 38.7147 146.601 35.8773 147.241 32.336C147.412 31.4827 147.497 30.5867 147.497 29.648C147.497 26.9173 146.686 24.7413 145.065 23.12C143.444 21.4987 141.289 20.688 138.601 20.688ZM166.81 13.584C167.578 9.27467 169.412 6.05333 172.314 3.92C175.215 1.744 179.162 0.783998 184.154 1.04L183.002 7.44C180.143 7.312 178.052 7.78133 176.73 8.848C175.407 9.872 174.511 11.6427 174.042 14.16L173.914 14.736H181.722L180.634 21.008H172.826L167.77 50H160.41L165.53 21.008H160.73L161.818 14.736H166.618L166.81 13.584ZM204.866 14.288C209.474 14.288 213.165 15.5893 215.938 18.192C218.711 20.752 220.098 24.2933 220.098 28.816C220.098 30.096 219.97 31.4827 219.714 32.976C219.074 36.5173 217.751 39.6107 215.746 42.256C213.741 44.9013 211.266 46.928 208.322 48.336C205.421 49.744 202.285 50.448 198.914 50.448C195.885 50.448 193.197 49.872 190.85 48.72C188.546 47.568 186.754 45.904 185.474 43.728C184.194 41.5093 183.554 38.8853 183.554 35.856C183.554 34.576 183.682 33.2107 183.938 31.76C184.578 28.2187 185.901 25.1253 187.906 22.48C189.911 19.8347 192.386 17.808 195.33 16.4C198.317 14.992 201.495 14.288 204.866 14.288ZM203.906 20.624C201.005 20.624 198.359 21.6267 195.97 23.632C193.581 25.6373 192.045 28.5387 191.362 32.336C191.191 33.3173 191.106 34.2987 191.106 35.28C191.106 38.1813 191.917 40.3787 193.538 41.872C195.159 43.3227 197.229 44.048 199.746 44.048C202.69 44.048 205.335 43.0667 207.682 41.104C210.071 39.0987 211.607 36.176 212.29 32.336C212.461 31.44 212.546 30.48 212.546 29.456C212.546 26.5547 211.735 24.3573 210.114 22.864C208.493 21.3707 206.423 20.624 203.906 20.624ZM235.943 21.648C237.564 19.344 239.591 17.5307 242.023 16.208C244.498 14.8427 247.186 14.16 250.087 14.16L248.679 22.096H246.503C243.303 22.096 240.594 22.8853 238.375 24.464C236.156 26 234.748 28.56 234.151 32.144L234.087 32.08L230.951 50H223.591L229.799 14.736H237.159L235.943 21.648ZM299.586 14.16C303.17 14.16 305.986 15.1413 308.034 17.104C310.082 19.0667 311.106 21.8827 311.106 25.552C311.106 26.7467 310.978 28.048 310.722 29.456L307.074 50H299.778L303.234 30.224C303.404 29.4133 303.49 28.56 303.49 27.664C303.49 25.4027 302.85 23.6533 301.57 22.416C300.29 21.1787 298.519 20.56 296.258 20.56C293.442 20.56 291.052 21.456 289.09 23.248C287.127 24.9973 285.826 27.5787 285.186 30.992L281.794 50H274.498L278.018 30.224C278.188 29.0293 278.274 28.1973 278.274 27.728C278.274 25.424 277.612 23.6533 276.29 22.416C275.01 21.1787 273.239 20.56 270.978 20.56C268.162 20.56 265.751 21.4773 263.746 23.312C261.783 25.104 260.482 27.7493 259.842 31.248V30.992L256.514 50H249.154L255.362 14.736H262.722L261.442 22.16C262.764 19.6 264.599 17.6373 266.946 16.272C269.292 14.864 271.874 14.16 274.69 14.16C277.591 14.16 279.98 14.8853 281.858 16.336C283.778 17.7867 284.994 19.8773 285.506 22.608C287.042 19.9627 289.068 17.8933 291.586 16.4C294.103 14.9067 296.77 14.16 299.586 14.16ZM335.881 14.288C339.166 14.288 341.811 15.0773 343.817 16.656C345.865 18.2347 347.123 20.3253 347.593 22.928L349.065 14.736H356.361L350.089 50H342.793L344.265 41.808C342.899 44.4107 340.937 46.5013 338.377 48.08C335.859 49.6587 333.001 50.448 329.801 50.448C325.705 50.448 322.483 49.2107 320.137 46.736C317.79 44.2613 316.617 40.848 316.617 36.496C316.617 34.8747 316.766 33.296 317.065 31.76C317.705 28.176 318.921 25.0827 320.713 22.48C322.547 19.8347 324.766 17.808 327.369 16.4C330.014 14.992 332.851 14.288 335.881 14.288ZM337.289 20.688C334.046 20.688 331.251 21.7333 328.905 23.824C326.601 25.9147 325.129 28.752 324.489 32.336C324.318 33.232 324.233 34.192 324.233 35.216C324.233 37.9893 325.022 40.144 326.601 41.68C328.179 43.216 330.355 43.984 333.128 43.984C336.243 43.984 338.995 42.9387 341.385 40.848C343.774 38.7147 345.289 35.8773 345.929 32.336C346.099 31.4827 346.185 30.5867 346.185 29.648C346.185 26.9173 345.374 24.7413 343.753 23.12C342.131 21.4987 339.977 20.688 337.289 20.688ZM369.337 38.352C369.209 39.0347 369.145 39.6747 369.145 40.272C369.145 41.5093 369.486 42.384 370.169 42.896C370.852 43.408 371.961 43.664 373.497 43.664H377.081L375.865 50H371.385C368.228 50 365.817 49.36 364.153 48.08C362.532 46.8 361.721 44.7093 361.721 41.808C361.721 40.528 361.828 39.3333 362.041 38.224L365.113 20.944H359.993L361.081 14.736H366.201L367.737 5.968H375.097L373.561 14.736H382.073L380.985 20.944H372.409L369.337 38.352ZM390.316 5.2C390.316 3.83466 390.849 2.66133 391.916 1.68C392.982 0.698663 394.305 0.207996 395.884 0.207996C397.121 0.207996 398.081 0.527997 398.764 1.168C399.489 1.808 399.852 2.64 399.852 3.664C399.852 5.11466 399.318 6.30933 398.252 7.248C397.228 8.18666 395.926 8.656 394.348 8.656C393.068 8.656 392.065 8.336 391.34 7.696C390.657 7.056 390.316 6.224 390.316 5.2ZM396.972 14.736L390.7 50H383.404L389.612 14.736H396.972ZM421.866 14.288C426.474 14.288 430.165 15.5893 432.938 18.192C435.711 20.752 437.098 24.2933 437.098 28.816C437.098 30.096 436.97 31.4827 436.714 32.976C436.074 36.5173 434.751 39.6107 432.746 42.256C430.741 44.9013 428.266 46.928 425.322 48.336C422.421 49.744 419.285 50.448 415.914 50.448C412.885 50.448 410.197 49.872 407.85 48.72C405.546 47.568 403.754 45.904 402.474 43.728C401.194 41.5093 400.554 38.8853 400.554 35.856C400.554 34.576 400.682 33.2107 400.938 31.76C401.578 28.2187 402.901 25.1253 404.906 22.48C406.911 19.8347 409.386 17.808 412.33 16.4C415.317 14.992 418.495 14.288 421.866 14.288ZM420.906 20.624C418.005 20.624 415.359 21.6267 412.97 23.632C410.581 25.6373 409.045 28.5387 408.362 32.336C408.191 33.3173 408.106 34.2987 408.106 35.28C408.106 38.1813 408.917 40.3787 410.538 41.872C412.159 43.3227 414.229 44.048 416.746 44.048C419.69 44.048 422.335 43.0667 424.682 41.104C427.071 39.0987 428.607 36.176 429.29 32.336C429.461 31.44 429.546 30.48 429.546 29.456C429.546 26.5547 428.735 24.3573 427.114 22.864C425.493 21.3707 423.423 20.624 420.906 20.624ZM466.703 14.16C470.159 14.16 472.89 15.1413 474.895 17.104C476.9 19.024 477.903 21.7973 477.903 25.424C477.903 26.704 477.775 28.048 477.519 29.456L473.935 50H466.639L470.095 30.224C470.266 29.4133 470.351 28.56 470.351 27.664C470.351 25.2747 469.668 23.4613 468.303 22.224C466.98 20.944 465.124 20.304 462.735 20.304C459.834 20.304 457.359 21.2427 455.311 23.12C453.263 24.9547 451.919 27.664 451.279 31.248V31.056L447.951 50H440.591L446.799 14.736H454.159L452.815 22.544C454.18 19.856 456.079 17.7867 458.511 16.336C460.986 14.8853 463.716 14.16 466.703 14.16Z" fill="black"/>
</svg>
